<svg width="408" height="173" viewBox="0 0 408 173" fill="none" xmlns="http://www.w3.org/2000/svg">
<circle cx="86.5" cy="86.5" r="84.1262" fill="black" stroke="url(#paint0_linear)" stroke-width="4.74753"/>
<path d="M118.094 118.185L52.1075 52.1981L73.3628 30.9429C79.194 25.1117 85.7655 21.199 93.0772 19.2049C100.359 17.1806 107.716 17.2863 115.148 19.5221C122.581 21.6975 129.303 25.7612 135.316 31.7133L138.352 34.7498C144.395 40.7925 148.534 47.4999 150.77 54.8721C153.006 62.1838 153.157 69.5257 151.223 76.8978C149.29 84.2095 145.483 90.7356 139.803 96.4762L118.094 118.185ZM80.2968 48.5725L121.765 90.0407L127.294 84.5116C131.856 79.9494 133.745 74.8282 132.959 69.148C132.143 63.4376 128.533 57.3798 122.128 50.9745L119.272 48.1193C112.897 41.7442 106.87 38.1639 101.19 37.3784C95.5094 36.5928 90.3278 38.5416 85.6447 43.2247L80.2968 48.5725Z" fill="white"/>
<path d="M77.7759 84.4097L77.4572 77.534L68.7146 68.7914L76.7058 60.8001L109.855 93.9492L101.864 101.94L87.2471 87.3239L88.6814 94.3134L91.9371 111.867L82.0561 121.748L78.5955 95.8844L48.9071 88.5989L58.3783 79.1277L77.7759 84.4097Z" fill="#F2E133"/>
<g filter="url(#filter0_d)">
<ellipse cx="27.188" cy="67.6824" rx="12.9133" ry="16.0467" transform="rotate(37.0125 27.188 67.6824)" fill="#24F038"/>
</g>
<g filter="url(#filter1_d)">
<ellipse cx="29.8147" cy="112.137" rx="12.7234" ry="13.388" fill="#F01E54"/>
</g>
<g filter="url(#filter2_d)">
<ellipse cx="60.0094" cy="136.919" rx="10.8244" ry="17.281" fill="#F06324"/>
</g>
<g filter="url(#filter3_d)">
<ellipse cx="108.529" cy="142.236" rx="18.8952" ry="10.8244" fill="#2BF2F1"/>
</g>
<path d="M210.882 37.8446V49.4109C210.882 51.1112 210.724 52.7522 210.408 54.3339H214.085L224.524 37.8446H234.311L223.635 54.3339C223.2 55.0457 222.725 55.6586 222.211 56.1727C221.697 56.6472 221.183 57.0624 220.669 57.4183V57.5962C221.223 57.9521 221.816 58.4464 222.448 59.0791C223.081 59.7118 223.595 60.3642 223.991 61.0365L235.023 78.7714H224.94L214.144 60.6213H210.408C210.566 61.333 210.684 62.025 210.763 62.6973C210.843 63.3695 210.882 64.0219 210.882 64.6546V78.7714H201.866V37.8446H210.882ZM248.475 37.8446V78.7714H239.459V37.8446H248.475ZM291.301 37.8446V75.5091C291.301 77.684 290.213 78.7714 288.038 78.7714H283.056C282.067 78.7714 281.316 78.5539 280.802 78.119C280.328 77.6445 279.853 76.9525 279.379 76.043L268.05 54.5119C267.575 53.6419 267.1 52.6534 266.626 51.5462C266.191 50.439 265.815 49.3713 265.499 48.3432H264.847C265.123 50.5576 265.262 52.6929 265.262 54.7491V78.7714H256.72V41.1068C256.72 38.932 257.808 37.8446 259.983 37.8446H264.906C265.855 37.8446 266.567 38.0818 267.041 38.5563C267.555 38.9913 268.05 39.6438 268.524 40.5137L279.497 61.3923C279.972 62.3018 280.466 63.3299 280.98 64.4767C281.494 65.5839 281.988 66.7109 282.463 67.8576H283.175C283.056 66.7109 282.957 65.5839 282.878 64.4767C282.839 63.3299 282.819 62.1832 282.819 61.0365V37.8446H291.301ZM330.668 55.1643V78.7714H324.025L323.135 74.5008C322.067 75.6871 320.525 76.8338 318.508 77.941C316.531 79.0087 314.159 79.5425 311.391 79.5425C306.725 79.5425 303.344 77.8817 301.248 74.5601C299.152 71.2385 298.104 65.8014 298.104 58.2487C298.104 52.9104 298.678 48.6991 299.824 45.6147C301.011 42.5304 302.928 40.3358 305.578 39.0309C308.267 37.6864 311.845 37.0142 316.314 37.0142C318.963 37.0142 321.296 37.1328 323.313 37.3701C325.33 37.6073 327.307 37.983 329.244 38.497L328.532 45.0809C326.437 45.0018 324.44 44.9425 322.542 44.903C320.644 44.8239 318.627 44.7843 316.492 44.7843C314.238 44.7843 312.458 45.1402 311.153 45.852C309.888 46.5242 308.979 47.8489 308.425 49.8261C307.911 51.7637 307.654 54.6305 307.654 58.4266C307.654 61.8273 307.852 64.4965 308.247 66.4341C308.682 68.3717 309.414 69.7557 310.442 70.5861C311.47 71.3769 312.874 71.7723 314.653 71.7723C316.156 71.7723 317.5 71.5746 318.686 71.1792C319.873 70.7838 320.96 70.329 321.949 69.815V55.1643H330.668ZM217.881 108.251C222.191 108.251 225.612 108.884 228.143 110.149C230.713 111.415 232.571 113.57 233.718 116.615C234.865 119.66 235.438 123.891 235.438 129.308C235.438 134.725 234.865 138.956 233.718 142.001C232.571 145.046 230.713 147.201 228.143 148.467C225.612 149.692 222.191 150.305 217.881 150.305C214.757 150.305 211.89 150.246 209.281 150.127C206.671 150.048 204.199 149.93 201.866 149.771V108.845C204.239 108.686 206.71 108.548 209.281 108.429C211.851 108.311 214.718 108.251 217.881 108.251ZM217.881 115.191C216.576 115.191 215.331 115.191 214.144 115.191C212.998 115.191 211.91 115.211 210.882 115.251V143.306C213.017 143.346 215.35 143.365 217.881 143.365C219.937 143.365 221.539 142.97 222.686 142.179C223.832 141.349 224.643 139.905 225.118 137.849C225.632 135.793 225.889 132.946 225.889 129.308C225.889 125.67 225.632 122.823 225.118 120.767C224.643 118.711 223.832 117.267 222.686 116.437C221.539 115.606 219.937 115.191 217.881 115.191ZM250.778 108.667C253.981 108.667 257.303 108.706 260.743 108.785C264.183 108.825 267.327 108.983 270.174 109.26L269.759 115.844H254.04C252.063 115.844 251.075 116.852 251.075 118.869V125.275H267.564V131.681H251.075V139.747C251.075 141.764 252.063 142.772 254.04 142.772H269.759L270.174 149.356C267.327 149.633 264.183 149.791 260.743 149.831C257.303 149.87 253.981 149.89 250.778 149.89C248.168 149.89 246.053 149.159 244.431 147.695C242.81 146.193 241.999 144.196 241.999 141.705V116.911C241.999 114.42 242.81 112.423 244.431 110.921C246.053 109.418 248.168 108.667 250.778 108.667ZM290.111 108.073C292.127 108.073 294.322 108.192 296.695 108.429C299.067 108.627 301.38 109.042 303.634 109.675L303.041 115.725C301.301 115.646 299.245 115.587 296.873 115.547C294.54 115.508 292.266 115.488 290.051 115.488C288.588 115.488 287.402 115.567 286.493 115.725C285.623 115.883 284.99 116.239 284.594 116.793C284.239 117.307 284.061 118.177 284.061 119.403C284.061 120.826 284.377 121.854 285.01 122.487C285.682 123.12 286.809 123.673 288.391 124.148L296.279 126.698C299.522 127.845 301.776 129.367 303.041 131.265C304.346 133.124 304.999 135.595 304.999 138.68C304.999 141.804 304.504 144.235 303.516 145.975C302.527 147.676 300.906 148.862 298.652 149.534C296.438 150.206 293.472 150.543 289.755 150.543C288.41 150.543 286.493 150.444 284.001 150.246C281.51 150.088 278.683 149.653 275.519 148.941L276.053 142.535C279.573 142.654 282.38 142.733 284.476 142.772C286.611 142.812 288.371 142.832 289.755 142.832C292.127 142.832 293.749 142.594 294.619 142.12C295.489 141.606 295.924 140.499 295.924 138.798C295.924 137.335 295.607 136.307 294.974 135.714C294.381 135.121 293.373 134.607 291.949 134.172L283.645 131.325C280.482 130.217 278.248 128.735 276.943 126.876C275.678 125.018 275.045 122.546 275.045 119.462C275.045 116.338 275.539 113.965 276.528 112.344C277.556 110.683 279.177 109.556 281.392 108.963C283.606 108.37 286.512 108.073 290.111 108.073ZM320.417 108.845V149.771H311.401V108.845H320.417ZM359.862 126.164V149.771H353.218L352.329 145.501C351.261 146.687 349.719 147.834 347.702 148.941C345.725 150.009 343.352 150.543 340.584 150.543C335.918 150.543 332.537 148.882 330.442 145.56C328.346 142.239 327.298 136.801 327.298 129.249C327.298 123.91 327.871 119.699 329.018 116.615C330.204 113.53 332.122 111.336 334.772 110.031C337.461 108.686 341.039 108.014 345.507 108.014C348.157 108.014 350.49 108.133 352.507 108.37C354.523 108.607 356.5 108.983 358.438 109.497L357.726 116.081C355.63 116.002 353.634 115.943 351.735 115.903C349.837 115.824 347.821 115.784 345.685 115.784C343.431 115.784 341.652 116.14 340.347 116.852C339.082 117.524 338.172 118.849 337.619 120.826C337.105 122.764 336.848 125.631 336.848 129.427C336.848 132.827 337.045 135.496 337.441 137.434C337.876 139.372 338.607 140.756 339.635 141.586C340.663 142.377 342.067 142.772 343.847 142.772C345.349 142.772 346.694 142.575 347.88 142.179C349.066 141.784 350.154 141.329 351.142 140.815V126.164H359.862ZM401.704 108.845V146.509C401.704 148.684 400.617 149.771 398.442 149.771H393.459C392.471 149.771 391.719 149.554 391.205 149.119C390.731 148.644 390.256 147.952 389.782 147.043L378.453 125.512C377.978 124.642 377.504 123.653 377.029 122.546C376.594 121.439 376.219 120.371 375.902 119.343H375.25C375.527 121.558 375.665 123.693 375.665 125.749V149.771H367.124V112.107C367.124 109.932 368.211 108.845 370.386 108.845H375.309C376.258 108.845 376.97 109.082 377.445 109.556C377.959 109.991 378.453 110.644 378.927 111.514L389.901 132.392C390.375 133.302 390.869 134.33 391.383 135.477C391.897 136.584 392.392 137.711 392.866 138.858H393.578C393.459 137.711 393.361 136.584 393.281 135.477C393.242 134.33 393.222 133.183 393.222 132.036V108.845H401.704Z" fill="url(#paint1_linear)"/>
<defs>
<filter id="filter0_d" x="3.56353" y="43.1982" width="47.2488" height="48.9686" filterUnits="userSpaceOnUse" color-interpolation-filters="sRGB">
<feFlood flood-opacity="0" result="BackgroundImageFix"/>
<feColorMatrix in="SourceAlpha" type="matrix" values="0 0 0 0 0 0 0 0 0 0 0 0 0 0 0 0 0 0 127 0"/>
<feOffset/>
<feGaussianBlur stdDeviation="4.74753"/>
<feColorMatrix type="matrix" values="0 0 0 0 0.141176 0 0 0 0 0.941176 0 0 0 0 0.219608 0 0 0 1 0"/>
<feBlend mode="normal" in2="BackgroundImageFix" result="effect1_dropShadow"/>
<feBlend mode="normal" in="SourceGraphic" in2="effect1_dropShadow" result="shape"/>
</filter>
<filter id="filter1_d" x="7.59625" y="89.2536" width="44.4369" height="45.7662" filterUnits="userSpaceOnUse" color-interpolation-filters="sRGB">
<feFlood flood-opacity="0" result="BackgroundImageFix"/>
<feColorMatrix in="SourceAlpha" type="matrix" values="0 0 0 0 0 0 0 0 0 0 0 0 0 0 0 0 0 0 127 0"/>
<feOffset/>
<feGaussianBlur stdDeviation="4.74753"/>
<feColorMatrix type="matrix" values="0 0 0 0 0.941176 0 0 0 0 0.117647 0 0 0 0 0.329412 0 0 0 1 0"/>
<feBlend mode="normal" in2="BackgroundImageFix" result="effect1_dropShadow"/>
<feBlend mode="normal" in="SourceGraphic" in2="effect1_dropShadow" result="shape"/>
</filter>
<filter id="filter2_d" x="39.69" y="110.143" width="40.6389" height="53.5521" filterUnits="userSpaceOnUse" color-interpolation-filters="sRGB">
<feFlood flood-opacity="0" result="BackgroundImageFix"/>
<feColorMatrix in="SourceAlpha" type="matrix" values="0 0 0 0 0 0 0 0 0 0 0 0 0 0 0 0 0 0 127 0"/>
<feOffset/>
<feGaussianBlur stdDeviation="4.74753"/>
<feColorMatrix type="matrix" values="0 0 0 0 0.941176 0 0 0 0 0.388235 0 0 0 0 0.141176 0 0 0 1 0"/>
<feBlend mode="normal" in2="BackgroundImageFix" result="effect1_dropShadow"/>
<feBlend mode="normal" in="SourceGraphic" in2="effect1_dropShadow" result="shape"/>
</filter>
<filter id="filter3_d" x="80.1392" y="121.917" width="56.7805" height="40.6389" filterUnits="userSpaceOnUse" color-interpolation-filters="sRGB">
<feFlood flood-opacity="0" result="BackgroundImageFix"/>
<feColorMatrix in="SourceAlpha" type="matrix" values="0 0 0 0 0 0 0 0 0 0 0 0 0 0 0 0 0 0 127 0"/>
<feOffset/>
<feGaussianBlur stdDeviation="4.74753"/>
<feColorMatrix type="matrix" values="0 0 0 0 0.168627 0 0 0 0 0.94902 0 0 0 0 0.945098 0 0 0 1 0"/>
<feBlend mode="normal" in2="BackgroundImageFix" result="effect1_dropShadow"/>
<feBlend mode="normal" in="SourceGraphic" in2="effect1_dropShadow" result="shape"/>
</filter>
<linearGradient id="paint0_linear" x1="24.972" y1="24.5922" x2="148.028" y2="147.363" gradientUnits="userSpaceOnUse">
<stop stop-color="#00FFA3"/>
<stop offset="1" stop-color="#00FFF0"/>
</linearGradient>
<linearGradient id="paint1_linear" x1="197.714" y1="19.7714" x2="412.641" y2="155.421" gradientUnits="userSpaceOnUse">
<stop stop-color="#24F038"/>
<stop offset="1" stop-color="#2BF2F1"/>
</linearGradient>
</defs>
</svg>
