<svg width="165" height="70" viewBox="0 0 165 70" fill="none" xmlns="http://www.w3.org/2000/svg">
<circle cx="35" cy="35" r="34.0395" fill="black" stroke="url(#paint0_linear)" stroke-width="1.92097"/>
<path d="M47.5263 47.5629L20.8266 20.8632L29.427 12.2628C31.7865 9.9033 34.4454 8.32014 37.4039 7.51328C40.3502 6.6942 43.327 6.73698 46.3344 7.64165C49.3418 8.52186 52.0619 10.1661 54.4947 12.5745L55.7233 13.8031C58.1683 16.2482 59.8432 18.9621 60.7479 21.9451C61.6525 24.9036 61.7136 27.8743 60.9312 30.8572C60.1488 33.8157 58.6085 36.4563 56.3101 38.7791L47.5263 47.5629ZM32.2327 19.3961L49.0117 36.1752L51.2489 33.938C53.0949 32.092 53.859 30.0198 53.5411 27.7215C53.211 25.4109 51.7501 22.9598 49.1584 20.368L48.0031 19.2128C45.4236 16.6333 42.9847 15.1846 40.6864 14.8667C38.388 14.5489 36.2914 15.3374 34.3965 17.2323L32.2327 19.3961Z" fill="white"/>
<path d="M31.2456 33.9294L31.1166 31.1474L27.5791 27.6099L30.8126 24.3764L44.2255 37.7893L40.992 41.0228L35.0778 35.1086L35.6582 37.9367L36.9755 45.0393L32.9775 49.0374L31.5772 38.5724L19.5646 35.6245L23.3968 31.7922L31.2456 33.9294Z" fill="#F2E133"/>
<g filter="url(#filter0_d)">
<ellipse cx="11.0007" cy="27.386" rx="5.22503" ry="6.49287" transform="rotate(37.0125 11.0007 27.386)" fill="#24F038"/>
</g>
<g filter="url(#filter1_d)">
<ellipse cx="12.0637" cy="45.3732" rx="5.14819" ry="5.41712" fill="#F01E54"/>
</g>
<g filter="url(#filter2_d)">
<ellipse cx="24.281" cy="55.4006" rx="4.3798" ry="6.99232" fill="#F06324"/>
</g>
<g filter="url(#filter3_d)">
<ellipse cx="43.9133" cy="57.5522" rx="7.64544" ry="4.3798" fill="#2BF2F1"/>
</g>
<path d="M85.328 15.44V20.12C85.328 20.808 85.264 21.472 85.136 22.112H86.624L90.848 15.44H94.808L90.488 22.112C90.312 22.4 90.12 22.648 89.912 22.856C89.704 23.048 89.496 23.216 89.288 23.36V23.432C89.512 23.576 89.752 23.776 90.008 24.032C90.264 24.288 90.472 24.552 90.632 24.824L95.096 32H91.016L86.648 24.656H85.136C85.2 24.944 85.248 25.224 85.28 25.496C85.312 25.768 85.328 26.032 85.328 26.288V32H81.68V15.44H85.328ZM100.539 15.44V32H96.8909V15.44H100.539ZM117.867 15.44V30.68C117.867 31.56 117.427 32 116.547 32H114.531C114.131 32 113.827 31.912 113.619 31.736C113.427 31.544 113.235 31.264 113.043 30.896L108.459 22.184C108.267 21.832 108.075 21.432 107.883 20.984C107.707 20.536 107.555 20.104 107.427 19.688H107.163C107.275 20.584 107.331 21.448 107.331 22.28V32H103.875V16.76C103.875 15.88 104.315 15.44 105.195 15.44H107.187C107.571 15.44 107.859 15.536 108.051 15.728C108.259 15.904 108.459 16.168 108.651 16.52L113.091 24.968C113.283 25.336 113.483 25.752 113.691 26.216C113.899 26.664 114.099 27.12 114.291 27.584H114.579C114.531 27.12 114.491 26.664 114.459 26.216C114.443 25.752 114.435 25.288 114.435 24.824V15.44H117.867ZM133.796 22.448V32H131.108L130.748 30.272C130.316 30.752 129.692 31.216 128.876 31.664C128.076 32.096 127.116 32.312 125.996 32.312C124.108 32.312 122.74 31.64 121.892 30.296C121.044 28.952 120.62 26.752 120.62 23.696C120.62 21.536 120.852 19.832 121.316 18.584C121.796 17.336 122.572 16.448 123.644 15.92C124.732 15.376 126.18 15.104 127.988 15.104C129.06 15.104 130.004 15.152 130.82 15.248C131.636 15.344 132.436 15.496 133.22 15.704L132.932 18.368C132.084 18.336 131.276 18.312 130.508 18.296C129.74 18.264 128.924 18.248 128.06 18.248C127.148 18.248 126.428 18.392 125.9 18.68C125.388 18.952 125.02 19.488 124.796 20.288C124.588 21.072 124.484 22.232 124.484 23.768C124.484 25.144 124.564 26.224 124.724 27.008C124.9 27.792 125.196 28.352 125.612 28.688C126.028 29.008 126.596 29.168 127.316 29.168C127.924 29.168 128.468 29.088 128.948 28.928C129.428 28.768 129.868 28.584 130.268 28.376V22.448H133.796ZM88.16 44.2C89.904 44.2 91.288 44.456 92.312 44.968C93.352 45.48 94.104 46.352 94.568 47.584C95.032 48.816 95.264 50.528 95.264 52.72C95.264 54.912 95.032 56.624 94.568 57.856C94.104 59.088 93.352 59.96 92.312 60.472C91.288 60.968 89.904 61.216 88.16 61.216C86.896 61.216 85.736 61.192 84.68 61.144C83.624 61.112 82.624 61.064 81.68 61V44.44C82.64 44.376 83.64 44.32 84.68 44.272C85.72 44.224 86.88 44.2 88.16 44.2ZM88.16 47.008C87.632 47.008 87.128 47.008 86.648 47.008C86.184 47.008 85.744 47.016 85.328 47.032V58.384C86.192 58.4 87.136 58.408 88.16 58.408C88.992 58.408 89.64 58.248 90.104 57.928C90.568 57.592 90.896 57.008 91.088 56.176C91.296 55.344 91.4 54.192 91.4 52.72C91.4 51.248 91.296 50.096 91.088 49.264C90.896 48.432 90.568 47.848 90.104 47.512C89.64 47.176 88.992 47.008 88.16 47.008ZM101.471 44.368C102.767 44.368 104.111 44.384 105.503 44.416C106.895 44.432 108.167 44.496 109.319 44.608L109.151 47.272H102.791C101.991 47.272 101.591 47.68 101.591 48.496V51.088H108.263V53.68H101.591V56.944C101.591 57.76 101.991 58.168 102.791 58.168H109.151L109.319 60.832C108.167 60.944 106.895 61.008 105.503 61.024C104.111 61.04 102.767 61.048 101.471 61.048C100.415 61.048 99.5588 60.752 98.9028 60.16C98.2468 59.552 97.9188 58.744 97.9188 57.736V47.704C97.9188 46.696 98.2468 45.888 98.9028 45.28C99.5588 44.672 100.415 44.368 101.471 44.368ZM117.386 44.128C118.202 44.128 119.09 44.176 120.05 44.272C121.01 44.352 121.946 44.52 122.858 44.776L122.618 47.224C121.914 47.192 121.082 47.168 120.122 47.152C119.178 47.136 118.258 47.128 117.362 47.128C116.77 47.128 116.29 47.16 115.922 47.224C115.57 47.288 115.314 47.432 115.154 47.656C115.01 47.864 114.938 48.216 114.938 48.712C114.938 49.288 115.066 49.704 115.322 49.96C115.594 50.216 116.05 50.44 116.69 50.632L119.882 51.664C121.194 52.128 122.106 52.744 122.618 53.512C123.146 54.264 123.41 55.264 123.41 56.512C123.41 57.776 123.21 58.76 122.81 59.464C122.41 60.152 121.754 60.632 120.842 60.904C119.946 61.176 118.746 61.312 117.242 61.312C116.698 61.312 115.922 61.272 114.914 61.192C113.906 61.128 112.762 60.952 111.482 60.664L111.698 58.072C113.122 58.12 114.258 58.152 115.106 58.168C115.97 58.184 116.682 58.192 117.242 58.192C118.202 58.192 118.858 58.096 119.21 57.904C119.562 57.696 119.738 57.248 119.738 56.56C119.738 55.968 119.61 55.552 119.354 55.312C119.114 55.072 118.706 54.864 118.13 54.688L114.77 53.536C113.49 53.088 112.586 52.488 112.058 51.736C111.546 50.984 111.29 49.984 111.29 48.736C111.29 47.472 111.49 46.512 111.89 45.856C112.306 45.184 112.962 44.728 113.858 44.488C114.754 44.248 115.93 44.128 117.386 44.128ZM129.648 44.44V61H126V44.44H129.648ZM145.609 51.448V61H142.921L142.561 59.272C142.129 59.752 141.505 60.216 140.689 60.664C139.889 61.096 138.929 61.312 137.809 61.312C135.921 61.312 134.553 60.64 133.705 59.296C132.857 57.952 132.433 55.752 132.433 52.696C132.433 50.536 132.665 48.832 133.129 47.584C133.609 46.336 134.385 45.448 135.457 44.92C136.545 44.376 137.993 44.104 139.801 44.104C140.873 44.104 141.817 44.152 142.633 44.248C143.449 44.344 144.249 44.496 145.033 44.704L144.745 47.368C143.897 47.336 143.089 47.312 142.321 47.296C141.553 47.264 140.737 47.248 139.873 47.248C138.961 47.248 138.241 47.392 137.713 47.68C137.201 47.952 136.833 48.488 136.609 49.288C136.401 50.072 136.297 51.232 136.297 52.768C136.297 54.144 136.377 55.224 136.537 56.008C136.713 56.792 137.009 57.352 137.425 57.688C137.841 58.008 138.409 58.168 139.129 58.168C139.737 58.168 140.281 58.088 140.761 57.928C141.241 57.768 141.681 57.584 142.081 57.376V51.448H145.609ZM162.539 44.44V59.68C162.539 60.56 162.099 61 161.219 61H159.203C158.803 61 158.499 60.912 158.291 60.736C158.099 60.544 157.907 60.264 157.715 59.896L153.131 51.184C152.939 50.832 152.747 50.432 152.555 49.984C152.379 49.536 152.227 49.104 152.099 48.688H151.835C151.947 49.584 152.003 50.448 152.003 51.28V61H148.547V45.76C148.547 44.88 148.987 44.44 149.867 44.44H151.859C152.243 44.44 152.531 44.536 152.723 44.728C152.931 44.904 153.131 45.168 153.323 45.52L157.763 53.968C157.955 54.336 158.155 54.752 158.363 55.216C158.571 55.664 158.771 56.12 158.963 56.584H159.251C159.203 56.12 159.163 55.664 159.131 55.216C159.115 54.752 159.107 54.288 159.107 53.824V44.44H162.539Z" fill="url(#paint1_linear)"/>
<defs>
<filter id="filter0_d" x="1.4417" y="17.4791" width="19.118" height="19.8139" filterUnits="userSpaceOnUse" color-interpolation-filters="sRGB">
<feFlood flood-opacity="0" result="BackgroundImageFix"/>
<feColorMatrix in="SourceAlpha" type="matrix" values="0 0 0 0 0 0 0 0 0 0 0 0 0 0 0 0 0 0 127 0"/>
<feOffset/>
<feGaussianBlur stdDeviation="1.92097"/>
<feColorMatrix type="matrix" values="0 0 0 0 0.141176 0 0 0 0 0.941176 0 0 0 0 0.219608 0 0 0 1 0"/>
<feBlend mode="normal" in2="BackgroundImageFix" result="effect1_dropShadow"/>
<feBlend mode="normal" in="SourceGraphic" in2="effect1_dropShadow" result="shape"/>
</filter>
<filter id="filter1_d" x="3.07353" y="36.1142" width="17.9802" height="18.5181" filterUnits="userSpaceOnUse" color-interpolation-filters="sRGB">
<feFlood flood-opacity="0" result="BackgroundImageFix"/>
<feColorMatrix in="SourceAlpha" type="matrix" values="0 0 0 0 0 0 0 0 0 0 0 0 0 0 0 0 0 0 127 0"/>
<feOffset/>
<feGaussianBlur stdDeviation="1.92097"/>
<feColorMatrix type="matrix" values="0 0 0 0 0.941176 0 0 0 0 0.117647 0 0 0 0 0.329412 0 0 0 1 0"/>
<feBlend mode="normal" in2="BackgroundImageFix" result="effect1_dropShadow"/>
<feBlend mode="normal" in="SourceGraphic" in2="effect1_dropShadow" result="shape"/>
</filter>
<filter id="filter2_d" x="16.0593" y="44.5664" width="16.4435" height="21.6685" filterUnits="userSpaceOnUse" color-interpolation-filters="sRGB">
<feFlood flood-opacity="0" result="BackgroundImageFix"/>
<feColorMatrix in="SourceAlpha" type="matrix" values="0 0 0 0 0 0 0 0 0 0 0 0 0 0 0 0 0 0 127 0"/>
<feOffset/>
<feGaussianBlur stdDeviation="1.92097"/>
<feColorMatrix type="matrix" values="0 0 0 0 0.941176 0 0 0 0 0.388235 0 0 0 0 0.141176 0 0 0 1 0"/>
<feBlend mode="normal" in2="BackgroundImageFix" result="effect1_dropShadow"/>
<feBlend mode="normal" in="SourceGraphic" in2="effect1_dropShadow" result="shape"/>
</filter>
<filter id="filter3_d" x="32.4259" y="49.3304" width="22.9748" height="16.4435" filterUnits="userSpaceOnUse" color-interpolation-filters="sRGB">
<feFlood flood-opacity="0" result="BackgroundImageFix"/>
<feColorMatrix in="SourceAlpha" type="matrix" values="0 0 0 0 0 0 0 0 0 0 0 0 0 0 0 0 0 0 127 0"/>
<feOffset/>
<feGaussianBlur stdDeviation="1.92097"/>
<feColorMatrix type="matrix" values="0 0 0 0 0.168627 0 0 0 0 0.94902 0 0 0 0 0.945098 0 0 0 1 0"/>
<feBlend mode="normal" in2="BackgroundImageFix" result="effect1_dropShadow"/>
<feBlend mode="normal" in="SourceGraphic" in2="effect1_dropShadow" result="shape"/>
</filter>
<linearGradient id="paint0_linear" x1="10.1043" y1="9.9506" x2="59.8957" y2="59.6268" gradientUnits="userSpaceOnUse">
<stop stop-color="#00FFA3"/>
<stop offset="1" stop-color="#00FFF0"/>
</linearGradient>
<linearGradient id="paint1_linear" x1="80" y1="8" x2="166.965" y2="62.8873" gradientUnits="userSpaceOnUse">
<stop stop-color="#24F038"/>
<stop offset="1" stop-color="#2BF2F1"/>
</linearGradient>
</defs>
</svg>
